<svg xmlns="http://www.w3.org/2000/svg" width="64" height="64.001" viewBox="0 0 64 64.001"><path d="M32,64A31.991,31.991,0,0,1,9.371,9.374,32,32,0,0,1,59.81,47.844,9.006,9.006,0,0,0,47.843,59.81,32,32,0,0,1,32,64Z"/><path d="M20.738,17.045c-.357-.178-2.094-1.028-2.418-1.145s-.561-.178-.8.178-.914,1.143-1.119,1.377-.414.249-.766.089a9.619,9.619,0,0,1-2.848-1.76,10.753,10.753,0,0,1-1.967-2.453c-.206-.356-.023-.551.154-.729.161-.16.357-.409.535-.62a3,3,0,0,0,.352-.588.651.651,0,0,0-.03-.621c-.089-.178-.8-1.92-1.093-2.615s-.577-.6-.8-.6c-.2-.018-.44-.018-.677-.018a1.336,1.336,0,0,0-.945.425A3.957,3.957,0,0,0,7.085,10.9,6.935,6.935,0,0,0,8.53,14.54a15.8,15.8,0,0,0,6.044,5.316c.846.356,1.505.569,2.02.745a4.9,4.9,0,0,0,2.228.143,3.647,3.647,0,0,0,2.389-1.69,2.934,2.934,0,0,0,.213-1.689c-.088-.16-.32-.249-.676-.409m-6.455,8.821h-.019a11.856,11.856,0,0,1-5.991-1.636l-.427-.254L3.413,25.044,4.6,20.724l-.283-.444a11.755,11.755,0,0,1,18.308-14.5,11.6,11.6,0,0,1,3.448,8.284A11.769,11.769,0,0,1,14.3,25.779M24.32,4.088A14.39,14.39,0,0,0,14.276,0,14.091,14.091,0,0,0,2.01,21.141L0,28.444l7.508-1.958A14.3,14.3,0,0,0,14.276,28.2h.007A14.151,14.151,0,0,0,28.444,14.1,13.978,13.978,0,0,0,24.3,4.134" transform="translate(17.777 18.029)" fill="#fff"/><circle cx="8" cy="8" r="8" transform="translate(48 48.001)" fill="#25d366"/></svg>